<svg xmlns="http://www.w3.org/2000/svg" xmlns:xlink="http://www.w3.org/1999/xlink" class="httpgd" width="1176.00" height="903.00" viewBox="0 0 940.80 722.40">
<defs>
  <style type='text/css'><![CDATA[
    .httpgd line, .httpgd polyline, .httpgd polygon, .httpgd path, .httpgd rect, .httpgd circle {
      fill: none;
      stroke: #000000;
      stroke-linecap: round;
      stroke-linejoin: round;
      stroke-miterlimit: 10.00;
    }
  ]]></style>
<clipPath id="c0"><rect x="0.00" y="0.00" width="940.80" height="722.40"/></clipPath>
<clipPath id="c1"><rect x="0.00" y="0.00" width="470.40" height="361.20"/></clipPath>
<clipPath id="c2"><rect x="0.00" y="0.00" width="940.80" height="722.40"/></clipPath>
<clipPath id="c3"><rect x="41.23" y="23.28" width="423.69" height="266.82"/></clipPath>
<clipPath id="c4"><rect x="0.00" y="0.00" width="940.80" height="722.40"/></clipPath>
<clipPath id="c5"><rect x="470.40" y="0.00" width="470.40" height="361.20"/></clipPath>
<clipPath id="c6"><rect x="0.00" y="0.00" width="940.80" height="722.40"/></clipPath>
<clipPath id="c7"><rect x="511.63" y="23.28" width="423.69" height="266.82"/></clipPath>
<clipPath id="c8"><rect x="0.00" y="0.00" width="940.80" height="722.40"/></clipPath>
<clipPath id="c9"><rect x="0.00" y="361.20" width="470.40" height="361.20"/></clipPath>
<clipPath id="c10"><rect x="0.00" y="0.00" width="940.80" height="722.40"/></clipPath>
<clipPath id="c11"><rect x="41.23" y="384.48" width="423.69" height="266.82"/></clipPath>
<clipPath id="c12"><rect x="0.00" y="0.00" width="940.80" height="722.40"/></clipPath>
<clipPath id="c13"><rect x="470.40" y="361.20" width="470.40" height="361.20"/></clipPath>
<clipPath id="c14"><rect x="0.00" y="0.00" width="940.80" height="722.40"/></clipPath>
<clipPath id="c15"><rect x="511.63" y="384.48" width="423.69" height="266.82"/></clipPath>
<clipPath id="c16"><rect x="0.00" y="0.00" width="940.80" height="722.40"/></clipPath>
</defs>
<rect width="100%" height="100%" style="stroke: none;fill: #FFFFFF;"/>
<g clip-path="url(#c0)">
</g><g clip-path="url(#c1)">
<rect x="0.00" y="0.00" width="470.40" height="361.20" style="stroke-width: 1.07;stroke: #FFFFFF;fill: #FFFFFF;"/>
</g><g clip-path="url(#c3)">
<rect x="41.23" y="23.28" width="423.69" height="266.82" style="stroke-width: 1.07;stroke: none;fill: #FFFFFF;"/>
<polyline points="41.23,287.87 464.92,287.87" style="stroke-width: 0.53;stroke: #EBEBEB;stroke-linecap: butt;"/>
<polyline points="41.23,219.65 464.92,219.65" style="stroke-width: 0.53;stroke: #EBEBEB;stroke-linecap: butt;"/>
<polyline points="41.23,151.43 464.92,151.43" style="stroke-width: 0.53;stroke: #EBEBEB;stroke-linecap: butt;"/>
<polyline points="41.23,83.21 464.92,83.21" style="stroke-width: 0.53;stroke: #EBEBEB;stroke-linecap: butt;"/>
<polyline points="81.89,290.10 81.89,23.28" style="stroke-width: 0.53;stroke: #EBEBEB;stroke-linecap: butt;"/>
<polyline points="124.68,290.10 124.68,23.28" style="stroke-width: 0.53;stroke: #EBEBEB;stroke-linecap: butt;"/>
<polyline points="167.48,290.10 167.48,23.28" style="stroke-width: 0.53;stroke: #EBEBEB;stroke-linecap: butt;"/>
<polyline points="210.28,290.10 210.28,23.28" style="stroke-width: 0.53;stroke: #EBEBEB;stroke-linecap: butt;"/>
<polyline points="253.07,290.10 253.07,23.28" style="stroke-width: 0.53;stroke: #EBEBEB;stroke-linecap: butt;"/>
<polyline points="295.87,290.10 295.87,23.28" style="stroke-width: 0.53;stroke: #EBEBEB;stroke-linecap: butt;"/>
<polyline points="338.67,290.10 338.67,23.28" style="stroke-width: 0.53;stroke: #EBEBEB;stroke-linecap: butt;"/>
<polyline points="381.47,290.10 381.47,23.28" style="stroke-width: 0.53;stroke: #EBEBEB;stroke-linecap: butt;"/>
<polyline points="424.26,290.10 424.26,23.28" style="stroke-width: 0.53;stroke: #EBEBEB;stroke-linecap: butt;"/>
<polyline points="41.23,253.76 464.92,253.76" style="stroke-width: 1.07;stroke: #EBEBEB;stroke-linecap: butt;"/>
<polyline points="41.23,185.54 464.92,185.54" style="stroke-width: 1.07;stroke: #EBEBEB;stroke-linecap: butt;"/>
<polyline points="41.23,117.32 464.92,117.32" style="stroke-width: 1.07;stroke: #EBEBEB;stroke-linecap: butt;"/>
<polyline points="41.23,49.10 464.92,49.10" style="stroke-width: 1.07;stroke: #EBEBEB;stroke-linecap: butt;"/>
<polyline points="60.49,290.10 60.49,23.28" style="stroke-width: 1.07;stroke: #EBEBEB;stroke-linecap: butt;"/>
<polyline points="103.28,290.10 103.28,23.28" style="stroke-width: 1.07;stroke: #EBEBEB;stroke-linecap: butt;"/>
<polyline points="146.08,290.10 146.08,23.28" style="stroke-width: 1.07;stroke: #EBEBEB;stroke-linecap: butt;"/>
<polyline points="188.88,290.10 188.88,23.28" style="stroke-width: 1.07;stroke: #EBEBEB;stroke-linecap: butt;"/>
<polyline points="231.68,290.10 231.68,23.28" style="stroke-width: 1.07;stroke: #EBEBEB;stroke-linecap: butt;"/>
<polyline points="274.47,290.10 274.47,23.28" style="stroke-width: 1.07;stroke: #EBEBEB;stroke-linecap: butt;"/>
<polyline points="317.27,290.10 317.27,23.28" style="stroke-width: 1.07;stroke: #EBEBEB;stroke-linecap: butt;"/>
<polyline points="360.07,290.10 360.07,23.28" style="stroke-width: 1.07;stroke: #EBEBEB;stroke-linecap: butt;"/>
<polyline points="402.86,290.10 402.86,23.28" style="stroke-width: 1.07;stroke: #EBEBEB;stroke-linecap: butt;"/>
<polyline points="445.66,290.10 445.66,23.28" style="stroke-width: 1.07;stroke: #EBEBEB;stroke-linecap: butt;"/>
<polygon points="60.49,44.68 73.77,44.40 87.05,43.88 100.33,42.93 113.61,41.41 126.90,39.57 140.18,37.85 153.46,36.69 166.74,36.14 180.02,35.93 193.31,35.78 206.59,35.57 219.87,35.41 233.15,35.44 246.43,35.77 259.72,36.36 273.00,37.19 286.28,38.22 299.56,39.44 312.84,40.83 326.12,42.38 339.41,44.08 352.69,45.87 365.97,47.73 379.25,49.53 392.53,51.05 405.82,52.06 419.10,52.48 432.38,52.47 445.66,52.22 445.66,185.39 432.38,185.58 419.10,185.59 405.82,185.18 392.53,184.17 379.25,182.65 365.97,180.86 352.69,179.00 339.41,177.20 326.12,175.51 312.84,173.95 299.56,172.56 286.28,171.34 273.00,170.31 259.72,169.47 246.43,168.87 233.15,168.56 219.87,168.52 206.59,168.68 193.31,168.90 180.02,169.05 166.74,169.25 153.46,169.80 140.18,170.96 126.90,172.68 113.61,174.52 100.33,176.05 87.05,176.99 73.77,177.51 60.49,177.86" style="stroke-width: 0.00;stroke: none;stroke-linecap: butt;fill: #000000;fill-opacity: 0.20;" />
<polyline points="60.49,44.68 73.77,44.40 87.05,43.88 100.33,42.93 113.61,41.41 126.90,39.57 140.18,37.85 153.46,36.69 166.74,36.14 180.02,35.93 193.31,35.78 206.59,35.57 219.87,35.41 233.15,35.44 246.43,35.77 259.72,36.36 273.00,37.19 286.28,38.22 299.56,39.44 312.84,40.83 326.12,42.38 339.41,44.08 352.69,45.87 365.97,47.73 379.25,49.53 392.53,51.05 405.82,52.06 419.10,52.48 432.38,52.47 445.66,52.22" style="stroke-width: 1.07;stroke-linecap: butt;"/>
<polyline points="445.66,185.39 432.38,185.58 419.10,185.59 405.82,185.18 392.53,184.17 379.25,182.65 365.97,180.86 352.69,179.00 339.41,177.20 326.12,175.51 312.84,173.95 299.56,172.56 286.28,171.34 273.00,170.31 259.72,169.47 246.43,168.87 233.15,168.56 219.87,168.52 206.59,168.68 193.31,168.90 180.02,169.05 166.74,169.25 153.46,169.80 140.18,170.96 126.90,172.68 113.61,174.52 100.33,176.05 87.05,176.99 73.77,177.51 60.49,177.86" style="stroke-width: 1.07;stroke-linecap: butt;"/>
<polygon points="60.49,104.06 73.77,99.21 87.05,94.41 100.33,89.77 113.61,85.41 126.90,81.65 140.18,78.90 153.46,77.58 166.74,77.71 180.02,78.95 193.31,80.96 206.59,83.50 219.87,86.41 233.15,89.56 246.43,92.85 259.72,96.22 273.00,99.61 286.28,103.01 299.56,106.47 312.84,110.10 326.12,113.99 339.41,118.12 352.69,122.34 365.97,126.57 379.25,130.64 392.53,134.37 405.82,137.56 419.10,140.16 432.38,142.32 445.66,144.24 445.66,277.97 432.38,275.95 419.10,273.75 405.82,271.13 392.53,267.91 379.25,264.16 365.97,260.08 352.69,255.85 339.41,251.61 326.12,247.48 312.84,243.59 299.56,239.95 286.28,236.48 273.00,233.08 259.72,229.68 246.43,226.32 233.15,223.03 219.87,219.88 206.59,216.97 193.31,214.44 180.02,212.43 166.74,211.20 153.46,211.09 140.18,212.42 126.90,215.18 113.61,218.97 100.33,223.36 87.05,228.03 73.77,232.87 60.49,237.82" style="stroke-width: 0.00;stroke: none;stroke-linecap: butt;fill: #E69F00;fill-opacity: 0.20;" />
<polyline points="60.49,104.06 73.77,99.21 87.05,94.41 100.33,89.77 113.61,85.41 126.90,81.65 140.18,78.90 153.46,77.58 166.74,77.71 180.02,78.95 193.31,80.96 206.59,83.50 219.87,86.41 233.15,89.56 246.43,92.85 259.72,96.22 273.00,99.61 286.28,103.01 299.56,106.47 312.84,110.10 326.12,113.99 339.41,118.12 352.69,122.34 365.97,126.57 379.25,130.64 392.53,134.37 405.82,137.56 419.10,140.16 432.38,142.32 445.66,144.24" style="stroke-width: 1.07;stroke: #E69F00;stroke-linecap: butt;"/>
<polyline points="445.66,277.97 432.38,275.95 419.10,273.75 405.82,271.13 392.53,267.91 379.25,264.16 365.97,260.08 352.69,255.85 339.41,251.61 326.12,247.48 312.84,243.59 299.56,239.95 286.28,236.48 273.00,233.08 259.72,229.68 246.43,226.32 233.15,223.03 219.87,219.88 206.59,216.97 193.31,214.44 180.02,212.43 166.74,211.20 153.46,211.09 140.18,212.42 126.90,215.18 113.61,218.97 100.33,223.36 87.05,228.03 73.77,232.87 60.49,237.82" style="stroke-width: 1.07;stroke: #E69F00;stroke-linecap: butt;"/>
<polygon points="60.49,78.08 73.77,73.43 87.05,68.82 100.33,64.34 113.61,60.10 126.90,56.41 140.18,53.69 153.46,52.36 166.74,52.42 180.02,53.53 193.31,55.36 206.59,57.65 219.87,60.25 233.15,63.03 246.43,65.91 259.72,68.82 273.00,71.72 286.28,74.60 299.56,77.51 312.84,80.56 326.12,83.84 339.41,87.33 352.69,90.91 365.97,94.47 379.25,97.88 392.53,100.94 405.82,103.47 419.10,105.43 432.38,106.96 445.66,108.26 445.66,242.29 432.38,240.84 419.10,239.23 405.82,237.21 392.53,234.62 379.25,231.51 365.97,228.07 352.69,224.47 339.41,220.86 326.12,217.36 312.84,214.06 299.56,210.99 286.28,208.06 273.00,205.18 259.72,202.27 246.43,199.36 233.15,196.48 219.87,193.69 206.59,191.09 193.31,188.82 180.02,187.00 166.74,185.89 153.46,185.85 140.18,187.21 126.90,189.96 113.61,193.69 100.33,197.99 87.05,202.52 73.77,207.21 60.49,212.00" style="stroke-width: 0.00;stroke: none;stroke-linecap: butt;fill: #56B4E9;fill-opacity: 0.20;" />
<polyline points="60.49,78.08 73.77,73.43 87.05,68.82 100.33,64.34 113.61,60.10 126.90,56.41 140.18,53.69 153.46,52.36 166.74,52.42 180.02,53.53 193.31,55.36 206.59,57.65 219.87,60.25 233.15,63.03 246.43,65.91 259.72,68.82 273.00,71.72 286.28,74.60 299.56,77.51 312.84,80.56 326.12,83.84 339.41,87.33 352.69,90.91 365.97,94.47 379.25,97.88 392.53,100.94 405.82,103.47 419.10,105.43 432.38,106.96 445.66,108.26" style="stroke-width: 1.07;stroke: #56B4E9;stroke-linecap: butt;"/>
<polyline points="445.66,242.29 432.38,240.84 419.10,239.23 405.82,237.21 392.53,234.62 379.25,231.51 365.97,228.07 352.69,224.47 339.41,220.86 326.12,217.36 312.84,214.06 299.56,210.99 286.28,208.06 273.00,205.18 259.72,202.27 246.43,199.36 233.15,196.48 219.87,193.69 206.59,191.09 193.31,188.82 180.02,187.00 166.74,185.89 153.46,185.85 140.18,187.21 126.90,189.96 113.61,193.69 100.33,197.99 87.05,202.52 73.77,207.21 60.49,212.00" style="stroke-width: 1.07;stroke: #56B4E9;stroke-linecap: butt;"/>
<polygon points="60.49,79.91 73.77,75.22 87.05,70.56 100.33,66.03 113.61,61.74 126.90,58.00 140.18,55.23 153.46,53.84 166.74,53.84 180.02,54.88 193.31,56.61 206.59,58.79 219.87,61.26 233.15,63.90 246.43,66.60 259.72,69.30 273.00,71.97 286.28,74.59 299.56,77.21 312.84,79.95 326.12,82.91 339.41,86.05 352.69,89.27 365.97,92.45 379.25,95.46 392.53,98.12 405.82,100.25 419.10,101.79 432.38,102.90 445.66,103.78 445.66,239.56 432.38,238.49 419.10,237.25 405.82,235.62 392.53,233.41 379.25,230.68 365.97,227.62 352.69,224.39 339.41,221.14 326.12,217.97 312.84,214.99 299.56,212.23 286.28,209.59 273.00,206.98 259.72,204.30 246.43,201.60 233.15,198.92 219.87,196.30 206.59,193.85 193.31,191.71 180.02,190.00 166.74,189.00 153.46,189.06 140.18,190.52 126.90,193.37 113.61,197.21 100.33,201.63 87.05,206.30 73.77,211.12 60.49,216.05" style="stroke-width: 0.00;stroke: none;stroke-linecap: butt;fill: #009E73;fill-opacity: 0.20;" />
<polyline points="60.49,79.91 73.77,75.22 87.05,70.56 100.33,66.03 113.61,61.74 126.90,58.00 140.18,55.23 153.46,53.84 166.74,53.84 180.02,54.88 193.31,56.61 206.59,58.79 219.87,61.26 233.15,63.90 246.43,66.60 259.72,69.30 273.00,71.97 286.28,74.59 299.56,77.21 312.84,79.95 326.12,82.91 339.41,86.05 352.69,89.27 365.97,92.45 379.25,95.46 392.53,98.12 405.82,100.25 419.10,101.79 432.38,102.90 445.66,103.78" style="stroke-width: 1.07;stroke: #009E73;stroke-linecap: butt;"/>
<polyline points="445.66,239.56 432.38,238.49 419.10,237.25 405.82,235.62 392.53,233.41 379.25,230.68 365.97,227.62 352.69,224.39 339.41,221.14 326.12,217.97 312.84,214.99 299.56,212.23 286.28,209.59 273.00,206.98 259.72,204.30 246.43,201.60 233.15,198.92 219.87,196.30 206.59,193.85 193.31,191.71 180.02,190.00 166.74,189.00 153.46,189.06 140.18,190.52 126.90,193.37 113.61,197.21 100.33,201.63 87.05,206.30 73.77,211.12 60.49,216.05" style="stroke-width: 1.07;stroke: #009E73;stroke-linecap: butt;"/>
<polyline points="60.49,111.27 73.77,110.96 87.05,110.43 100.33,109.49 113.61,107.97 126.90,106.12 140.18,104.41 153.46,103.25 166.74,102.70 180.02,102.49 193.31,102.34 206.59,102.12 219.87,101.96 233.15,102.00 246.43,102.32 259.72,102.92 273.00,103.75 286.28,104.78 299.56,106.00 312.84,107.39 326.12,108.95 339.41,110.64 352.69,112.43 365.97,114.29 379.25,116.09 392.53,117.61 405.82,118.62 419.10,119.03 432.38,119.02 445.66,118.80" style="stroke-width: 1.07;stroke-linecap: butt;"/>
<polyline points="60.49,170.94 73.77,166.04 87.05,161.22 100.33,156.57 113.61,152.19 126.90,148.41 140.18,145.66 153.46,144.34 166.74,144.46 180.02,145.69 193.31,147.70 206.59,150.23 219.87,153.14 233.15,156.30 246.43,159.59 259.72,162.95 273.00,166.35 286.28,169.74 299.56,173.21 312.84,176.84 326.12,180.74 339.41,184.86 352.69,189.09 365.97,193.33 379.25,197.40 392.53,201.14 405.82,204.35 419.10,206.95 432.38,209.13 445.66,211.10" style="stroke-width: 1.07;stroke: #E69F00;stroke-linecap: butt;"/>
<polyline points="60.49,145.04 73.77,140.32 87.05,135.67 100.33,131.16 113.61,126.89 126.90,123.18 140.18,120.45 153.46,119.11 166.74,119.16 180.02,120.26 193.31,122.09 206.59,124.37 219.87,126.97 233.15,129.76 246.43,132.63 259.72,135.55 273.00,138.45 286.28,141.33 299.56,144.25 312.84,147.31 326.12,150.60 339.41,154.10 352.69,157.69 365.97,161.27 379.25,164.69 392.53,167.78 405.82,170.34 419.10,172.33 432.38,173.90 445.66,175.27" style="stroke-width: 1.07;stroke: #56B4E9;stroke-linecap: butt;"/>
<polyline points="60.49,147.98 73.77,143.17 87.05,138.43 100.33,133.83 113.61,129.48 126.90,125.68 140.18,122.87 153.46,121.45 166.74,121.42 180.02,122.44 193.31,124.16 206.59,126.32 219.87,128.78 233.15,131.41 246.43,134.10 259.72,136.80 273.00,139.47 286.28,142.09 299.56,144.72 312.84,147.47 326.12,150.44 339.41,153.60 352.69,156.83 365.97,160.04 379.25,163.07 392.53,165.76 405.82,167.93 419.10,169.52 432.38,170.69 445.66,171.67" style="stroke-width: 1.07;stroke: #009E73;stroke-linecap: butt;"/>
<rect x="41.23" y="23.28" width="423.69" height="266.82" style="stroke-width: 1.07;stroke: #333333;"/>
</g><g clip-path="url(#c4)">
<g><text x="36.30" y="256.92" text-anchor="end" style="font-family: Arial;font-size: 8.80px;fill: #4D4D4D;" textLength="15.16px" lengthAdjust="spacingAndGlyphs">-1.0</text></g>
<g><text x="36.30" y="188.70" text-anchor="end" style="font-family: Arial;font-size: 8.80px;fill: #4D4D4D;" textLength="15.16px" lengthAdjust="spacingAndGlyphs">-0.5</text></g>
<g><text x="36.30" y="120.48" text-anchor="end" style="font-family: Arial;font-size: 8.80px;fill: #4D4D4D;" textLength="12.23px" lengthAdjust="spacingAndGlyphs">0.0</text></g>
<g><text x="36.30" y="52.26" text-anchor="end" style="font-family: Arial;font-size: 8.80px;fill: #4D4D4D;" textLength="12.23px" lengthAdjust="spacingAndGlyphs">0.5</text></g>
<polyline points="38.49,253.76 41.23,253.76" style="stroke-width: 1.07;stroke: #333333;stroke-linecap: butt;"/>
<polyline points="38.49,185.54 41.23,185.54" style="stroke-width: 1.07;stroke: #333333;stroke-linecap: butt;"/>
<polyline points="38.49,117.32 41.23,117.32" style="stroke-width: 1.07;stroke: #333333;stroke-linecap: butt;"/>
<polyline points="38.49,49.10 41.23,49.10" style="stroke-width: 1.07;stroke: #333333;stroke-linecap: butt;"/>
<polyline points="60.49,292.84 60.49,290.10" style="stroke-width: 1.07;stroke: #333333;stroke-linecap: butt;"/>
<polyline points="103.28,292.84 103.28,290.10" style="stroke-width: 1.07;stroke: #333333;stroke-linecap: butt;"/>
<polyline points="146.08,292.84 146.08,290.10" style="stroke-width: 1.07;stroke: #333333;stroke-linecap: butt;"/>
<polyline points="188.88,292.84 188.88,290.10" style="stroke-width: 1.07;stroke: #333333;stroke-linecap: butt;"/>
<polyline points="231.68,292.84 231.68,290.10" style="stroke-width: 1.07;stroke: #333333;stroke-linecap: butt;"/>
<polyline points="274.47,292.84 274.47,290.10" style="stroke-width: 1.07;stroke: #333333;stroke-linecap: butt;"/>
<polyline points="317.27,292.84 317.27,290.10" style="stroke-width: 1.07;stroke: #333333;stroke-linecap: butt;"/>
<polyline points="360.07,292.84 360.07,290.10" style="stroke-width: 1.07;stroke: #333333;stroke-linecap: butt;"/>
<polyline points="402.86,292.84 402.86,290.10" style="stroke-width: 1.07;stroke: #333333;stroke-linecap: butt;"/>
<polyline points="445.66,292.84 445.66,290.10" style="stroke-width: 1.07;stroke: #333333;stroke-linecap: butt;"/>
<g><text x="60.49" y="301.34" text-anchor="middle" style="font-family: Arial;font-size: 8.80px;fill: #4D4D4D;" textLength="4.90px" lengthAdjust="spacingAndGlyphs">1</text></g>
<g><text x="103.28" y="301.34" text-anchor="middle" style="font-family: Arial;font-size: 8.80px;fill: #4D4D4D;" textLength="4.90px" lengthAdjust="spacingAndGlyphs">2</text></g>
<g><text x="146.08" y="301.34" text-anchor="middle" style="font-family: Arial;font-size: 8.80px;fill: #4D4D4D;" textLength="4.90px" lengthAdjust="spacingAndGlyphs">3</text></g>
<g><text x="188.88" y="301.34" text-anchor="middle" style="font-family: Arial;font-size: 8.80px;fill: #4D4D4D;" textLength="4.90px" lengthAdjust="spacingAndGlyphs">4</text></g>
<g><text x="231.68" y="301.34" text-anchor="middle" style="font-family: Arial;font-size: 8.80px;fill: #4D4D4D;" textLength="4.90px" lengthAdjust="spacingAndGlyphs">5</text></g>
<g><text x="274.47" y="301.34" text-anchor="middle" style="font-family: Arial;font-size: 8.80px;fill: #4D4D4D;" textLength="4.90px" lengthAdjust="spacingAndGlyphs">6</text></g>
<g><text x="317.27" y="301.34" text-anchor="middle" style="font-family: Arial;font-size: 8.80px;fill: #4D4D4D;" textLength="4.90px" lengthAdjust="spacingAndGlyphs">7</text></g>
<g><text x="360.07" y="301.34" text-anchor="middle" style="font-family: Arial;font-size: 8.80px;fill: #4D4D4D;" textLength="4.90px" lengthAdjust="spacingAndGlyphs">8</text></g>
<g><text x="402.86" y="301.34" text-anchor="middle" style="font-family: Arial;font-size: 8.80px;fill: #4D4D4D;" textLength="4.90px" lengthAdjust="spacingAndGlyphs">9</text></g>
<g><text x="445.66" y="301.34" text-anchor="middle" style="font-family: Arial;font-size: 8.80px;fill: #4D4D4D;" textLength="9.79px" lengthAdjust="spacingAndGlyphs">10</text></g>
<g><text x="253.07" y="314.10" text-anchor="middle" style="font-family: Arial;font-size: 11.00px;" textLength="107.63px" lengthAdjust="spacingAndGlyphs">measurement number</text></g>
<g><text transform="translate(13.37,156.69) rotate(-90.00)" text-anchor="middle" style="font-family: Arial;font-size: 11.00px;" textLength="64.20px" lengthAdjust="spacingAndGlyphs">A1* (z-score)</text></g>
<rect x="97.62" y="327.48" width="310.91" height="28.24" style="stroke-width: 1.07;stroke: none;fill: #FFFFFF;"/>
<g><text x="103.10" y="345.55" style="font-family: Arial;font-size: 11.00px;" textLength="49.55px" lengthAdjust="spacingAndGlyphs">Phonation</text></g>
<rect x="158.11" y="332.96" width="17.28" height="17.28" style="stroke-width: 1.07;stroke: none;fill: #FFFFFF;"/>
<rect x="158.82" y="333.67" width="15.86" height="15.86" style="stroke-width: 1.07;stroke-linecap: butt;stroke-linejoin: miter;fill: #000000;fill-opacity: 0.20;"/>
<line x1="159.84" y1="341.60" x2="173.66" y2="341.60" style="stroke-width: 1.07;stroke-linecap: butt;"/>
<rect x="210.86" y="332.96" width="17.28" height="17.28" style="stroke-width: 1.07;stroke: none;fill: #FFFFFF;"/>
<rect x="211.56" y="333.67" width="15.86" height="15.86" style="stroke-width: 1.07;stroke: #E69F00;stroke-linecap: butt;stroke-linejoin: miter;fill: #E69F00;fill-opacity: 0.20;"/>
<line x1="212.58" y1="341.60" x2="226.41" y2="341.60" style="stroke-width: 1.07;stroke: #E69F00;stroke-linecap: butt;"/>
<rect x="268.84" y="332.96" width="17.28" height="17.28" style="stroke-width: 1.07;stroke: none;fill: #FFFFFF;"/>
<rect x="269.55" y="333.67" width="15.86" height="15.86" style="stroke-width: 1.07;stroke: #56B4E9;stroke-linecap: butt;stroke-linejoin: miter;fill: #56B4E9;fill-opacity: 0.20;"/>
<line x1="270.57" y1="341.60" x2="284.39" y2="341.60" style="stroke-width: 1.07;stroke: #56B4E9;stroke-linecap: butt;"/>
<rect x="330.41" y="332.96" width="17.28" height="17.28" style="stroke-width: 1.07;stroke: none;fill: #FFFFFF;"/>
<rect x="331.12" y="333.67" width="15.86" height="15.86" style="stroke-width: 1.07;stroke: #009E73;stroke-linecap: butt;stroke-linejoin: miter;fill: #009E73;fill-opacity: 0.20;"/>
<line x1="332.14" y1="341.60" x2="345.97" y2="341.60" style="stroke-width: 1.07;stroke: #009E73;stroke-linecap: butt;"/>
<g><text x="180.87" y="344.75" style="font-family: Arial;font-size: 8.80px;" textLength="23.97px" lengthAdjust="spacingAndGlyphs">modal</text></g>
<g><text x="233.61" y="344.75" style="font-family: Arial;font-size: 8.80px;" textLength="29.35px" lengthAdjust="spacingAndGlyphs">breathy</text></g>
<g><text x="291.60" y="344.75" style="font-family: Arial;font-size: 8.80px;" textLength="32.78px" lengthAdjust="spacingAndGlyphs">checked</text></g>
<g><text x="353.17" y="344.75" style="font-family: Arial;font-size: 8.80px;" textLength="48.42px" lengthAdjust="spacingAndGlyphs">rearticulated</text></g>
<g><text x="41.23" y="14.94" style="font-family: Arial;font-size: 13.20px;" textLength="93.84px" lengthAdjust="spacingAndGlyphs">Model fit for A1*</text></g>
</g><g clip-path="url(#c5)">
<rect x="470.40" y="0.00" width="470.40" height="361.20" style="stroke-width: 1.07;stroke: #FFFFFF;fill: #FFFFFF;"/>
</g><g clip-path="url(#c7)">
<rect x="511.63" y="23.28" width="423.69" height="266.82" style="stroke-width: 1.07;stroke: none;fill: #FFFFFF;"/>
<polyline points="511.63,247.65 935.32,247.65" style="stroke-width: 0.53;stroke: #EBEBEB;stroke-linecap: butt;"/>
<polyline points="511.63,187.01 935.32,187.01" style="stroke-width: 0.53;stroke: #EBEBEB;stroke-linecap: butt;"/>
<polyline points="511.63,126.37 935.32,126.37" style="stroke-width: 0.53;stroke: #EBEBEB;stroke-linecap: butt;"/>
<polyline points="511.63,65.73 935.32,65.73" style="stroke-width: 0.53;stroke: #EBEBEB;stroke-linecap: butt;"/>
<polyline points="541.59,290.10 541.59,23.28" style="stroke-width: 0.53;stroke: #EBEBEB;stroke-linecap: butt;"/>
<polyline points="648.58,290.10 648.58,23.28" style="stroke-width: 0.53;stroke: #EBEBEB;stroke-linecap: butt;"/>
<polyline points="755.57,290.10 755.57,23.28" style="stroke-width: 0.53;stroke: #EBEBEB;stroke-linecap: butt;"/>
<polyline points="862.57,290.10 862.57,23.28" style="stroke-width: 0.53;stroke: #EBEBEB;stroke-linecap: butt;"/>
<polyline points="511.63,277.97 935.32,277.97" style="stroke-width: 1.07;stroke: #EBEBEB;stroke-linecap: butt;"/>
<polyline points="511.63,217.33 935.32,217.33" style="stroke-width: 1.07;stroke: #EBEBEB;stroke-linecap: butt;"/>
<polyline points="511.63,156.69 935.32,156.69" style="stroke-width: 1.07;stroke: #EBEBEB;stroke-linecap: butt;"/>
<polyline points="511.63,96.05 935.32,96.05" style="stroke-width: 1.07;stroke: #EBEBEB;stroke-linecap: butt;"/>
<polyline points="511.63,35.41 935.32,35.41" style="stroke-width: 1.07;stroke: #EBEBEB;stroke-linecap: butt;"/>
<polyline points="595.08,290.10 595.08,23.28" style="stroke-width: 1.07;stroke: #EBEBEB;stroke-linecap: butt;"/>
<polyline points="702.08,290.10 702.08,23.28" style="stroke-width: 1.07;stroke: #EBEBEB;stroke-linecap: butt;"/>
<polyline points="809.07,290.10 809.07,23.28" style="stroke-width: 1.07;stroke: #EBEBEB;stroke-linecap: butt;"/>
<polyline points="916.06,290.10 916.06,23.28" style="stroke-width: 1.07;stroke: #EBEBEB;stroke-linecap: butt;"/>
<line x1="511.63" y1="156.69" x2="935.32" y2="156.69" style="stroke-width: 1.07;stroke: #7F7F7F; stroke-dasharray: 5.69, 5.69;stroke-linecap: butt;"/>
<rect x="530.89" y="-1056.12" width="385.18" height="2425.62" style="stroke-width: 1.07;stroke: none;stroke-linecap: butt;stroke-linejoin: miter;fill: #FF0000;fill-opacity: 0.15;"/>
<polygon points="530.89,79.69 534.78,80.97 538.67,82.24 542.56,83.47 546.45,84.68 550.34,85.85 554.23,86.98 558.12,88.06 562.01,89.09 565.90,90.07 569.79,90.99 573.68,91.85 577.57,92.63 581.47,93.35 585.36,94.00 589.25,94.57 593.14,95.08 597.03,95.51 600.92,95.87 604.81,96.16 608.70,96.38 612.59,96.54 616.48,96.63 620.37,96.65 624.26,96.62 628.15,96.52 632.04,96.36 635.93,96.14 639.83,95.85 643.72,95.51 647.61,95.10 651.50,94.64 655.39,94.13 659.28,93.56 663.17,92.94 667.06,92.28 670.95,91.58 674.84,90.85 678.73,90.09 682.62,89.30 686.51,88.49 690.40,87.68 694.29,86.85 698.18,86.04 702.08,85.23 705.97,84.43 709.86,83.66 713.75,82.90 717.64,82.15 721.53,81.41 725.42,80.69 729.31,79.98 733.20,79.29 737.09,78.61 740.98,77.95 744.87,77.31 748.76,76.68 752.65,76.07 756.54,75.47 760.44,74.88 764.33,74.30 768.22,73.72 772.11,73.13 776.00,72.55 779.89,71.96 783.78,71.36 787.67,70.76 791.56,70.15 795.45,69.53 799.34,68.91 803.23,68.28 807.12,67.65 811.01,67.01 814.90,66.37 818.80,65.72 822.69,65.08 826.58,64.45 830.47,63.83 834.36,63.21 838.25,62.61 842.14,62.01 846.03,61.42 849.92,60.83 853.81,60.24 857.70,59.66 861.59,59.07 865.48,58.49 869.37,57.91 873.26,57.33 877.16,56.76 881.05,56.18 884.94,55.61 888.83,55.03 892.72,54.45 896.61,53.86 900.50,53.27 904.39,52.66 908.28,52.05 912.17,51.42 916.06,50.78 916.06,98.51 912.17,99.01 908.28,99.52 904.39,100.05 900.50,100.58 896.61,101.13 892.72,101.68 888.83,102.24 884.94,102.81 881.05,103.37 877.16,103.94 873.26,104.50 869.37,105.07 865.48,105.63 861.59,106.19 857.70,106.76 853.81,107.33 849.92,107.91 846.03,108.49 842.14,109.08 838.25,109.68 834.36,110.29 830.47,110.90 826.58,111.52 822.69,112.14 818.80,112.76 814.90,113.39 811.01,114.03 807.12,114.66 803.23,115.30 799.34,115.93 795.45,116.56 791.56,117.18 787.67,117.78 783.78,118.38 779.89,118.97 776.00,119.55 772.11,120.12 768.22,120.70 764.33,121.28 760.44,121.86 756.54,122.46 752.65,123.06 748.76,123.68 744.87,124.30 740.98,124.94 737.09,125.60 733.20,126.27 729.31,126.95 725.42,127.66 721.53,128.38 717.64,129.11 713.75,129.87 709.86,130.64 705.97,131.42 702.08,132.22 698.18,133.03 694.29,133.84 690.40,134.66 686.51,135.47 682.62,136.28 678.73,137.07 674.84,137.84 670.95,138.58 667.06,139.29 663.17,139.96 659.28,140.59 655.39,141.16 651.50,141.67 647.61,142.13 643.72,142.53 639.83,142.88 635.93,143.17 632.04,143.40 628.15,143.58 624.26,143.69 620.37,143.74 616.48,143.72 612.59,143.64 608.70,143.49 604.81,143.27 600.92,142.98 597.03,142.63 593.14,142.21 589.25,141.73 585.36,141.18 581.47,140.56 577.57,139.87 573.68,139.10 569.79,138.27 565.90,137.36 562.01,136.40 558.12,135.39 554.23,134.34 550.34,133.25 546.45,132.14 542.56,131.01 538.67,129.87 534.78,128.74 530.89,127.61" style="stroke-width: 0.00;stroke: none;stroke-linecap: butt;fill: #333333;fill-opacity: 0.20;" />
<polyline points="530.89,79.69 534.78,80.97 538.67,82.24 542.56,83.47 546.45,84.68 550.34,85.85 554.23,86.98 558.12,88.06 562.01,89.09 565.90,90.07 569.79,90.99 573.68,91.85 577.57,92.63 581.47,93.35 585.36,94.00 589.25,94.57 593.14,95.08 597.03,95.51 600.92,95.87 604.81,96.16 608.70,96.38 612.59,96.54 616.48,96.63 620.37,96.65 624.26,96.62 628.15,96.52 632.04,96.36 635.93,96.14 639.83,95.85 643.72,95.51 647.61,95.10 651.50,94.64 655.39,94.13 659.28,93.56 663.17,92.94 667.06,92.28 670.95,91.58 674.84,90.85 678.73,90.09 682.62,89.30 686.51,88.49 690.40,87.68 694.29,86.85 698.18,86.04 702.08,85.23 705.97,84.43 709.86,83.66 713.75,82.90 717.64,82.15 721.53,81.41 725.42,80.69 729.31,79.98 733.20,79.29 737.09,78.61 740.98,77.95 744.87,77.31 748.76,76.68 752.65,76.07 756.54,75.47 760.44,74.88 764.33,74.30 768.22,73.72 772.11,73.13 776.00,72.55 779.89,71.96 783.78,71.36 787.67,70.76 791.56,70.15 795.45,69.53 799.34,68.91 803.23,68.28 807.12,67.65 811.01,67.01 814.90,66.37 818.80,65.72 822.69,65.08 826.58,64.45 830.47,63.83 834.36,63.21 838.25,62.61 842.14,62.01 846.03,61.42 849.92,60.83 853.81,60.24 857.70,59.66 861.59,59.07 865.48,58.49 869.37,57.91 873.26,57.33 877.16,56.76 881.05,56.18 884.94,55.61 888.83,55.03 892.72,54.45 896.61,53.86 900.50,53.27 904.39,52.66 908.28,52.05 912.17,51.42 916.06,50.78" style="stroke-width: 1.07;stroke: none;stroke-linecap: butt;"/>
<polyline points="916.06,98.51 912.17,99.01 908.28,99.52 904.39,100.05 900.50,100.58 896.61,101.13 892.72,101.68 888.83,102.24 884.94,102.81 881.05,103.37 877.16,103.94 873.26,104.50 869.37,105.07 865.48,105.63 861.59,106.19 857.70,106.76 853.81,107.33 849.92,107.91 846.03,108.49 842.14,109.08 838.25,109.68 834.36,110.29 830.47,110.90 826.58,111.52 822.69,112.14 818.80,112.76 814.90,113.39 811.01,114.03 807.12,114.66 803.23,115.30 799.34,115.93 795.45,116.56 791.56,117.18 787.67,117.78 783.78,118.38 779.89,118.97 776.00,119.55 772.11,120.12 768.22,120.70 764.33,121.28 760.44,121.86 756.54,122.46 752.65,123.06 748.76,123.68 744.87,124.30 740.98,124.94 737.09,125.60 733.20,126.27 729.31,126.95 725.42,127.66 721.53,128.38 717.64,129.11 713.75,129.87 709.86,130.64 705.97,131.42 702.08,132.22 698.18,133.03 694.29,133.84 690.40,134.66 686.51,135.47 682.62,136.28 678.73,137.07 674.84,137.84 670.95,138.58 667.06,139.29 663.17,139.96 659.28,140.59 655.39,141.16 651.50,141.67 647.61,142.13 643.72,142.53 639.83,142.88 635.93,143.17 632.04,143.40 628.15,143.58 624.26,143.69 620.37,143.74 616.48,143.72 612.59,143.64 608.70,143.49 604.81,143.27 600.92,142.98 597.03,142.63 593.14,142.21 589.25,141.73 585.36,141.18 581.47,140.56 577.57,139.87 573.68,139.10 569.79,138.27 565.90,137.36 562.01,136.40 558.12,135.39 554.23,134.34 550.34,133.25 546.45,132.14 542.56,131.01 538.67,129.87 534.78,128.74 530.89,127.61" style="stroke-width: 1.07;stroke: none;stroke-linecap: butt;"/>
<polyline points="530.89,103.65 534.78,104.86 538.67,106.06 542.56,107.24 546.45,108.41 550.34,109.55 554.23,110.66 558.12,111.72 562.01,112.75 565.90,113.72 569.79,114.63 573.68,115.47 577.57,116.25 581.47,116.95 585.36,117.59 589.25,118.15 593.14,118.65 597.03,119.07 600.92,119.43 604.81,119.71 608.70,119.93 612.59,120.09 616.48,120.18 620.37,120.20 624.26,120.16 628.15,120.05 632.04,119.88 635.93,119.65 639.83,119.36 643.72,119.02 647.61,118.61 651.50,118.15 655.39,117.64 659.28,117.07 663.17,116.45 667.06,115.79 670.95,115.08 674.84,114.34 678.73,113.58 682.62,112.79 686.51,111.98 690.40,111.17 694.29,110.35 698.18,109.53 702.08,108.72 705.97,107.93 709.86,107.15 713.75,106.38 717.64,105.63 721.53,104.89 725.42,104.17 729.31,103.47 733.20,102.78 737.09,102.10 740.98,101.45 744.87,100.80 748.76,100.18 752.65,99.57 756.54,98.97 760.44,98.37 764.33,97.79 768.22,97.21 772.11,96.63 776.00,96.05 779.89,95.46 783.78,94.87 787.67,94.27 791.56,93.66 795.45,93.04 799.34,92.42 803.23,91.79 807.12,91.15 811.01,90.52 814.90,89.88 818.80,89.24 822.69,88.61 826.58,87.98 830.47,87.36 834.36,86.75 838.25,86.14 842.14,85.55 846.03,84.95 849.92,84.37 853.81,83.79 857.70,83.21 861.59,82.63 865.48,82.06 869.37,81.49 873.26,80.92 877.16,80.35 881.05,79.78 884.94,79.21 888.83,78.64 892.72,78.07 896.61,77.50 900.50,76.93 904.39,76.36 908.28,75.78 912.17,75.21 916.06,74.64" style="stroke-width: 1.07;stroke-linecap: butt;"/>
<rect x="511.63" y="23.28" width="423.69" height="266.82" style="stroke-width: 1.07;stroke: #333333;"/>
</g><g clip-path="url(#c8)">
<g><text x="506.70" y="281.12" text-anchor="end" style="font-family: Arial;font-size: 8.80px;fill: #4D4D4D;" textLength="15.16px" lengthAdjust="spacingAndGlyphs">-1.0</text></g>
<g><text x="506.70" y="220.48" text-anchor="end" style="font-family: Arial;font-size: 8.80px;fill: #4D4D4D;" textLength="15.16px" lengthAdjust="spacingAndGlyphs">-0.5</text></g>
<g><text x="506.70" y="159.84" text-anchor="end" style="font-family: Arial;font-size: 8.80px;fill: #4D4D4D;" textLength="12.23px" lengthAdjust="spacingAndGlyphs">0.0</text></g>
<g><text x="506.70" y="99.20" text-anchor="end" style="font-family: Arial;font-size: 8.80px;fill: #4D4D4D;" textLength="12.23px" lengthAdjust="spacingAndGlyphs">0.5</text></g>
<g><text x="506.70" y="38.56" text-anchor="end" style="font-family: Arial;font-size: 8.80px;fill: #4D4D4D;" textLength="12.23px" lengthAdjust="spacingAndGlyphs">1.0</text></g>
<polyline points="508.89,277.97 511.63,277.97" style="stroke-width: 1.07;stroke: #333333;stroke-linecap: butt;"/>
<polyline points="508.89,217.33 511.63,217.33" style="stroke-width: 1.07;stroke: #333333;stroke-linecap: butt;"/>
<polyline points="508.89,156.69 511.63,156.69" style="stroke-width: 1.07;stroke: #333333;stroke-linecap: butt;"/>
<polyline points="508.89,96.05 511.63,96.05" style="stroke-width: 1.07;stroke: #333333;stroke-linecap: butt;"/>
<polyline points="508.89,35.41 511.63,35.41" style="stroke-width: 1.07;stroke: #333333;stroke-linecap: butt;"/>
<polyline points="595.08,292.84 595.08,290.10" style="stroke-width: 1.07;stroke: #333333;stroke-linecap: butt;"/>
<polyline points="702.08,292.84 702.08,290.10" style="stroke-width: 1.07;stroke: #333333;stroke-linecap: butt;"/>
<polyline points="809.07,292.84 809.07,290.10" style="stroke-width: 1.07;stroke: #333333;stroke-linecap: butt;"/>
<polyline points="916.06,292.84 916.06,290.10" style="stroke-width: 1.07;stroke: #333333;stroke-linecap: butt;"/>
<g><text x="595.08" y="301.34" text-anchor="middle" style="font-family: Arial;font-size: 8.80px;fill: #4D4D4D;" textLength="12.23px" lengthAdjust="spacingAndGlyphs">2.5</text></g>
<g><text x="702.08" y="301.34" text-anchor="middle" style="font-family: Arial;font-size: 8.80px;fill: #4D4D4D;" textLength="12.23px" lengthAdjust="spacingAndGlyphs">5.0</text></g>
<g><text x="809.07" y="301.34" text-anchor="middle" style="font-family: Arial;font-size: 8.80px;fill: #4D4D4D;" textLength="12.23px" lengthAdjust="spacingAndGlyphs">7.5</text></g>
<g><text x="916.06" y="301.34" text-anchor="middle" style="font-family: Arial;font-size: 8.80px;fill: #4D4D4D;" textLength="17.13px" lengthAdjust="spacingAndGlyphs">10.0</text></g>
<g><text x="723.47" y="314.10" text-anchor="middle" style="font-family: Arial;font-size: 11.00px;" textLength="94.79px" lengthAdjust="spacingAndGlyphs">prop. word duration</text></g>
<g><text transform="translate(483.77,156.69) rotate(-90.00)" text-anchor="middle" style="font-family: Arial;font-size: 11.00px;" textLength="108.22px" lengthAdjust="spacingAndGlyphs">est. smooth difference</text></g>
<g><text x="511.63" y="14.94" style="font-family: Arial;font-size: 13.20px;" textLength="233.88px" lengthAdjust="spacingAndGlyphs">Difference smooth for modal vs. breathy</text></g>
</g><g clip-path="url(#c9)">
<rect x="0.00" y="361.20" width="470.40" height="361.20" style="stroke-width: 1.07;stroke: #FFFFFF;fill: #FFFFFF;"/>
</g><g clip-path="url(#c11)">
<rect x="41.23" y="384.48" width="423.69" height="266.82" style="stroke-width: 1.07;stroke: none;fill: #FFFFFF;"/>
<polyline points="41.23,608.85 464.92,608.85" style="stroke-width: 0.53;stroke: #EBEBEB;stroke-linecap: butt;"/>
<polyline points="41.23,548.21 464.92,548.21" style="stroke-width: 0.53;stroke: #EBEBEB;stroke-linecap: butt;"/>
<polyline points="41.23,487.57 464.92,487.57" style="stroke-width: 0.53;stroke: #EBEBEB;stroke-linecap: butt;"/>
<polyline points="41.23,426.93 464.92,426.93" style="stroke-width: 0.53;stroke: #EBEBEB;stroke-linecap: butt;"/>
<polyline points="71.19,651.30 71.19,384.48" style="stroke-width: 0.53;stroke: #EBEBEB;stroke-linecap: butt;"/>
<polyline points="178.18,651.30 178.18,384.48" style="stroke-width: 0.53;stroke: #EBEBEB;stroke-linecap: butt;"/>
<polyline points="285.17,651.30 285.17,384.48" style="stroke-width: 0.53;stroke: #EBEBEB;stroke-linecap: butt;"/>
<polyline points="392.17,651.30 392.17,384.48" style="stroke-width: 0.53;stroke: #EBEBEB;stroke-linecap: butt;"/>
<polyline points="41.23,639.17 464.92,639.17" style="stroke-width: 1.07;stroke: #EBEBEB;stroke-linecap: butt;"/>
<polyline points="41.23,578.53 464.92,578.53" style="stroke-width: 1.07;stroke: #EBEBEB;stroke-linecap: butt;"/>
<polyline points="41.23,517.89 464.92,517.89" style="stroke-width: 1.07;stroke: #EBEBEB;stroke-linecap: butt;"/>
<polyline points="41.23,457.25 464.92,457.25" style="stroke-width: 1.07;stroke: #EBEBEB;stroke-linecap: butt;"/>
<polyline points="41.23,396.61 464.92,396.61" style="stroke-width: 1.07;stroke: #EBEBEB;stroke-linecap: butt;"/>
<polyline points="124.68,651.30 124.68,384.48" style="stroke-width: 1.07;stroke: #EBEBEB;stroke-linecap: butt;"/>
<polyline points="231.68,651.30 231.68,384.48" style="stroke-width: 1.07;stroke: #EBEBEB;stroke-linecap: butt;"/>
<polyline points="338.67,651.30 338.67,384.48" style="stroke-width: 1.07;stroke: #EBEBEB;stroke-linecap: butt;"/>
<polyline points="445.66,651.30 445.66,384.48" style="stroke-width: 1.07;stroke: #EBEBEB;stroke-linecap: butt;"/>
<line x1="41.23" y1="517.89" x2="464.92" y2="517.89" style="stroke-width: 1.07;stroke: #7F7F7F; stroke-dasharray: 5.69, 5.69;stroke-linecap: butt;"/>
<rect x="60.49" y="-694.92" width="23.34" height="2425.62" style="stroke-width: 1.07;stroke: none;stroke-linecap: butt;stroke-linejoin: miter;fill: #FF0000;fill-opacity: 0.15;"/>
<rect x="231.68" y="-694.92" width="213.99" height="2425.62" style="stroke-width: 1.07;stroke: none;stroke-linecap: butt;stroke-linejoin: miter;fill: #FF0000;fill-opacity: 0.15;"/>
<polygon points="60.49,463.27 64.38,464.51 68.27,465.73 72.16,466.93 76.05,468.10 79.94,469.23 83.83,470.33 87.72,471.38 91.61,472.38 95.50,473.33 99.39,474.22 103.28,475.05 107.17,475.82 111.07,476.52 114.96,477.15 118.85,477.71 122.74,478.20 126.63,478.62 130.52,478.98 134.41,479.27 138.30,479.49 142.19,479.65 146.08,479.75 149.97,479.79 153.86,479.77 157.75,479.68 161.64,479.54 165.53,479.34 169.43,479.09 173.32,478.77 177.21,478.41 181.10,477.99 184.99,477.52 188.88,477.00 192.77,476.44 196.66,475.84 200.55,475.20 204.44,474.54 208.33,473.85 212.22,473.14 216.11,472.41 220.00,471.68 223.89,470.95 227.78,470.23 231.68,469.51 235.57,468.82 239.46,468.15 243.35,467.49 247.24,466.86 251.13,466.24 255.02,465.63 258.91,465.04 262.80,464.47 266.69,463.92 270.58,463.38 274.47,462.87 278.36,462.37 282.25,461.90 286.14,461.43 290.04,460.98 293.93,460.54 297.82,460.09 301.71,459.65 305.60,459.21 309.49,458.77 313.38,458.32 317.27,457.87 321.16,457.41 325.05,456.95 328.94,456.48 332.83,456.01 336.72,455.53 340.61,455.05 344.50,454.57 348.40,454.09 352.29,453.61 356.18,453.14 360.07,452.68 363.96,452.23 367.85,451.78 371.74,451.35 375.63,450.92 379.52,450.49 383.41,450.07 387.30,449.64 391.19,449.22 395.08,448.80 398.97,448.37 402.86,447.95 406.76,447.52 410.65,447.10 414.54,446.67 418.43,446.24 422.32,445.81 426.21,445.37 430.10,444.92 433.99,444.46 437.88,443.98 441.77,443.50 445.66,443.00 445.66,492.39 441.77,492.72 437.88,493.06 433.99,493.42 430.10,493.78 426.21,494.16 422.32,494.54 418.43,494.93 414.54,495.32 410.65,495.71 406.76,496.10 402.86,496.49 398.97,496.88 395.08,497.26 391.19,497.65 387.30,498.03 383.41,498.43 379.52,498.82 375.63,499.23 371.74,499.64 367.85,500.06 363.96,500.49 360.07,500.92 356.18,501.36 352.29,501.80 348.40,502.26 344.50,502.71 340.61,503.17 336.72,503.64 332.83,504.10 328.94,504.57 325.05,505.03 321.16,505.49 317.27,505.93 313.38,506.37 309.49,506.80 305.60,507.23 301.71,507.65 297.82,508.08 293.93,508.51 290.04,508.95 286.14,509.40 282.25,509.86 278.36,510.34 274.47,510.83 270.58,511.34 266.69,511.86 262.80,512.40 258.91,512.96 255.02,513.54 251.13,514.14 247.24,514.77 243.35,515.41 239.46,516.07 235.57,516.74 231.68,517.44 227.78,518.15 223.89,518.87 220.00,519.59 216.11,520.32 212.22,521.04 208.33,521.75 204.44,522.45 200.55,523.13 196.66,523.77 192.77,524.39 188.88,524.96 184.99,525.48 181.10,525.95 177.21,526.37 173.32,526.74 169.43,527.06 165.53,527.33 161.64,527.54 157.75,527.70 153.86,527.80 149.97,527.85 146.08,527.83 142.19,527.74 138.30,527.60 134.41,527.39 130.52,527.11 126.63,526.78 122.74,526.38 118.85,525.92 114.96,525.39 111.07,524.80 107.17,524.14 103.28,523.41 99.39,522.62 95.50,521.76 91.61,520.84 87.72,519.88 83.83,518.88 79.94,517.84 76.05,516.78 72.16,515.71 68.27,514.63 64.38,513.55 60.49,512.47" style="stroke-width: 0.00;stroke: none;stroke-linecap: butt;fill: #333333;fill-opacity: 0.20;" />
<polyline points="60.49,463.27 64.38,464.51 68.27,465.73 72.16,466.93 76.05,468.10 79.94,469.23 83.83,470.33 87.72,471.38 91.61,472.38 95.50,473.33 99.39,474.22 103.28,475.05 107.17,475.82 111.07,476.52 114.96,477.15 118.85,477.71 122.74,478.20 126.63,478.62 130.52,478.98 134.41,479.27 138.30,479.49 142.19,479.65 146.08,479.75 149.97,479.79 153.86,479.77 157.75,479.68 161.64,479.54 165.53,479.34 169.43,479.09 173.32,478.77 177.21,478.41 181.10,477.99 184.99,477.52 188.88,477.00 192.77,476.44 196.66,475.84 200.55,475.20 204.44,474.54 208.33,473.85 212.22,473.14 216.11,472.41 220.00,471.68 223.89,470.95 227.78,470.23 231.68,469.51 235.57,468.82 239.46,468.15 243.35,467.49 247.24,466.86 251.13,466.24 255.02,465.63 258.91,465.04 262.80,464.47 266.69,463.92 270.58,463.38 274.47,462.87 278.36,462.37 282.25,461.90 286.14,461.43 290.04,460.98 293.93,460.54 297.82,460.09 301.71,459.65 305.60,459.21 309.49,458.77 313.38,458.32 317.27,457.87 321.16,457.41 325.05,456.95 328.94,456.48 332.83,456.01 336.72,455.53 340.61,455.05 344.50,454.57 348.40,454.09 352.29,453.61 356.18,453.14 360.07,452.68 363.96,452.23 367.85,451.78 371.74,451.35 375.63,450.92 379.52,450.49 383.41,450.07 387.30,449.64 391.19,449.22 395.08,448.80 398.97,448.37 402.86,447.95 406.76,447.52 410.65,447.10 414.54,446.67 418.43,446.24 422.32,445.81 426.21,445.37 430.10,444.92 433.99,444.46 437.88,443.98 441.77,443.50 445.66,443.00" style="stroke-width: 1.07;stroke: none;stroke-linecap: butt;"/>
<polyline points="445.66,492.39 441.77,492.72 437.88,493.06 433.99,493.42 430.10,493.78 426.21,494.16 422.32,494.54 418.43,494.93 414.54,495.32 410.65,495.71 406.76,496.10 402.86,496.49 398.97,496.88 395.08,497.26 391.19,497.65 387.30,498.03 383.41,498.43 379.52,498.82 375.63,499.23 371.74,499.64 367.85,500.06 363.96,500.49 360.07,500.92 356.18,501.36 352.29,501.80 348.40,502.26 344.50,502.71 340.61,503.17 336.72,503.64 332.83,504.10 328.94,504.57 325.05,505.03 321.16,505.49 317.27,505.93 313.38,506.37 309.49,506.80 305.60,507.23 301.71,507.65 297.82,508.08 293.93,508.51 290.04,508.95 286.14,509.40 282.25,509.86 278.36,510.34 274.47,510.83 270.58,511.34 266.69,511.86 262.80,512.40 258.91,512.96 255.02,513.54 251.13,514.14 247.24,514.77 243.35,515.41 239.46,516.07 235.57,516.74 231.68,517.44 227.78,518.15 223.89,518.87 220.00,519.59 216.11,520.32 212.22,521.04 208.33,521.75 204.44,522.45 200.55,523.13 196.66,523.77 192.77,524.39 188.88,524.96 184.99,525.48 181.10,525.95 177.21,526.37 173.32,526.74 169.43,527.06 165.53,527.33 161.64,527.54 157.75,527.70 153.86,527.80 149.97,527.85 146.08,527.83 142.19,527.74 138.30,527.60 134.41,527.39 130.52,527.11 126.63,526.78 122.74,526.38 118.85,525.92 114.96,525.39 111.07,524.80 107.17,524.14 103.28,523.41 99.39,522.62 95.50,521.76 91.61,520.84 87.72,519.88 83.83,518.88 79.94,517.84 76.05,516.78 72.16,515.71 68.27,514.63 64.38,513.55 60.49,512.47" style="stroke-width: 1.07;stroke: none;stroke-linecap: butt;"/>
<polyline points="60.49,487.87 64.38,489.03 68.27,490.18 72.16,491.32 76.05,492.44 79.94,493.54 83.83,494.60 87.72,495.63 91.61,496.61 95.50,497.54 99.39,498.42 103.28,499.23 107.17,499.98 111.07,500.66 114.96,501.27 118.85,501.81 122.74,502.29 126.63,502.70 130.52,503.05 134.41,503.33 138.30,503.54 142.19,503.70 146.08,503.79 149.97,503.82 153.86,503.78 157.75,503.69 161.64,503.54 165.53,503.34 169.43,503.07 173.32,502.76 177.21,502.39 181.10,501.97 184.99,501.50 188.88,500.98 192.77,500.41 196.66,499.81 200.55,499.17 204.44,498.49 208.33,497.80 212.22,497.09 216.11,496.37 220.00,495.64 223.89,494.91 227.78,494.19 231.68,493.48 235.57,492.78 239.46,492.11 243.35,491.45 247.24,490.81 251.13,490.19 255.02,489.59 258.91,489.00 262.80,488.44 266.69,487.89 270.58,487.36 274.47,486.85 278.36,486.36 282.25,485.88 286.14,485.42 290.04,484.97 293.93,484.52 297.82,484.08 301.71,483.65 305.60,483.22 309.49,482.79 313.38,482.35 317.27,481.90 321.16,481.45 325.05,480.99 328.94,480.53 332.83,480.06 336.72,479.58 340.61,479.11 344.50,478.64 348.40,478.17 352.29,477.71 356.18,477.25 360.07,476.80 363.96,476.36 367.85,475.92 371.74,475.49 375.63,475.07 379.52,474.66 383.41,474.25 387.30,473.84 391.19,473.43 395.08,473.03 398.97,472.62 402.86,472.22 406.76,471.81 410.65,471.41 414.54,471.00 418.43,470.59 422.32,470.18 426.21,469.76 430.10,469.35 433.99,468.94 437.88,468.52 441.77,468.11 445.66,467.69" style="stroke-width: 1.07;stroke-linecap: butt;"/>
<rect x="41.23" y="384.48" width="423.69" height="266.82" style="stroke-width: 1.07;stroke: #333333;"/>
</g><g clip-path="url(#c12)">
<g><text x="36.30" y="642.32" text-anchor="end" style="font-family: Arial;font-size: 8.80px;fill: #4D4D4D;" textLength="15.16px" lengthAdjust="spacingAndGlyphs">-1.0</text></g>
<g><text x="36.30" y="581.68" text-anchor="end" style="font-family: Arial;font-size: 8.80px;fill: #4D4D4D;" textLength="15.16px" lengthAdjust="spacingAndGlyphs">-0.5</text></g>
<g><text x="36.30" y="521.04" text-anchor="end" style="font-family: Arial;font-size: 8.80px;fill: #4D4D4D;" textLength="12.23px" lengthAdjust="spacingAndGlyphs">0.0</text></g>
<g><text x="36.30" y="460.40" text-anchor="end" style="font-family: Arial;font-size: 8.80px;fill: #4D4D4D;" textLength="12.23px" lengthAdjust="spacingAndGlyphs">0.5</text></g>
<g><text x="36.30" y="399.76" text-anchor="end" style="font-family: Arial;font-size: 8.80px;fill: #4D4D4D;" textLength="12.23px" lengthAdjust="spacingAndGlyphs">1.0</text></g>
<polyline points="38.49,639.17 41.23,639.17" style="stroke-width: 1.07;stroke: #333333;stroke-linecap: butt;"/>
<polyline points="38.49,578.53 41.23,578.53" style="stroke-width: 1.07;stroke: #333333;stroke-linecap: butt;"/>
<polyline points="38.49,517.89 41.23,517.89" style="stroke-width: 1.07;stroke: #333333;stroke-linecap: butt;"/>
<polyline points="38.49,457.25 41.23,457.25" style="stroke-width: 1.07;stroke: #333333;stroke-linecap: butt;"/>
<polyline points="38.49,396.61 41.23,396.61" style="stroke-width: 1.07;stroke: #333333;stroke-linecap: butt;"/>
<polyline points="124.68,654.04 124.68,651.30" style="stroke-width: 1.07;stroke: #333333;stroke-linecap: butt;"/>
<polyline points="231.68,654.04 231.68,651.30" style="stroke-width: 1.07;stroke: #333333;stroke-linecap: butt;"/>
<polyline points="338.67,654.04 338.67,651.30" style="stroke-width: 1.07;stroke: #333333;stroke-linecap: butt;"/>
<polyline points="445.66,654.04 445.66,651.30" style="stroke-width: 1.07;stroke: #333333;stroke-linecap: butt;"/>
<g><text x="124.68" y="662.54" text-anchor="middle" style="font-family: Arial;font-size: 8.80px;fill: #4D4D4D;" textLength="12.23px" lengthAdjust="spacingAndGlyphs">2.5</text></g>
<g><text x="231.68" y="662.54" text-anchor="middle" style="font-family: Arial;font-size: 8.80px;fill: #4D4D4D;" textLength="12.23px" lengthAdjust="spacingAndGlyphs">5.0</text></g>
<g><text x="338.67" y="662.54" text-anchor="middle" style="font-family: Arial;font-size: 8.80px;fill: #4D4D4D;" textLength="12.23px" lengthAdjust="spacingAndGlyphs">7.5</text></g>
<g><text x="445.66" y="662.54" text-anchor="middle" style="font-family: Arial;font-size: 8.80px;fill: #4D4D4D;" textLength="17.13px" lengthAdjust="spacingAndGlyphs">10.0</text></g>
<g><text x="253.07" y="675.30" text-anchor="middle" style="font-family: Arial;font-size: 11.00px;" textLength="94.79px" lengthAdjust="spacingAndGlyphs">prop. word duration</text></g>
<g><text transform="translate(13.37,517.89) rotate(-90.00)" text-anchor="middle" style="font-family: Arial;font-size: 11.00px;" textLength="108.22px" lengthAdjust="spacingAndGlyphs">est. smooth difference</text></g>
<g><text x="41.23" y="376.14" style="font-family: Arial;font-size: 13.20px;" textLength="239.01px" lengthAdjust="spacingAndGlyphs">Difference smooth for modal vs. checked</text></g>
</g><g clip-path="url(#c13)">
<rect x="470.40" y="361.20" width="470.40" height="361.20" style="stroke-width: 1.07;stroke: #FFFFFF;fill: #FFFFFF;"/>
</g><g clip-path="url(#c15)">
<rect x="511.63" y="384.48" width="423.69" height="266.82" style="stroke-width: 1.07;stroke: none;fill: #FFFFFF;"/>
<polyline points="511.63,608.85 935.32,608.85" style="stroke-width: 0.53;stroke: #EBEBEB;stroke-linecap: butt;"/>
<polyline points="511.63,548.21 935.32,548.21" style="stroke-width: 0.53;stroke: #EBEBEB;stroke-linecap: butt;"/>
<polyline points="511.63,487.57 935.32,487.57" style="stroke-width: 0.53;stroke: #EBEBEB;stroke-linecap: butt;"/>
<polyline points="511.63,426.93 935.32,426.93" style="stroke-width: 0.53;stroke: #EBEBEB;stroke-linecap: butt;"/>
<polyline points="541.59,651.30 541.59,384.48" style="stroke-width: 0.53;stroke: #EBEBEB;stroke-linecap: butt;"/>
<polyline points="648.58,651.30 648.58,384.48" style="stroke-width: 0.53;stroke: #EBEBEB;stroke-linecap: butt;"/>
<polyline points="755.57,651.30 755.57,384.48" style="stroke-width: 0.53;stroke: #EBEBEB;stroke-linecap: butt;"/>
<polyline points="862.57,651.30 862.57,384.48" style="stroke-width: 0.53;stroke: #EBEBEB;stroke-linecap: butt;"/>
<polyline points="511.63,639.17 935.32,639.17" style="stroke-width: 1.07;stroke: #EBEBEB;stroke-linecap: butt;"/>
<polyline points="511.63,578.53 935.32,578.53" style="stroke-width: 1.07;stroke: #EBEBEB;stroke-linecap: butt;"/>
<polyline points="511.63,517.89 935.32,517.89" style="stroke-width: 1.07;stroke: #EBEBEB;stroke-linecap: butt;"/>
<polyline points="511.63,457.25 935.32,457.25" style="stroke-width: 1.07;stroke: #EBEBEB;stroke-linecap: butt;"/>
<polyline points="511.63,396.61 935.32,396.61" style="stroke-width: 1.07;stroke: #EBEBEB;stroke-linecap: butt;"/>
<polyline points="595.08,651.30 595.08,384.48" style="stroke-width: 1.07;stroke: #EBEBEB;stroke-linecap: butt;"/>
<polyline points="702.08,651.30 702.08,384.48" style="stroke-width: 1.07;stroke: #EBEBEB;stroke-linecap: butt;"/>
<polyline points="809.07,651.30 809.07,384.48" style="stroke-width: 1.07;stroke: #EBEBEB;stroke-linecap: butt;"/>
<polyline points="916.06,651.30 916.06,384.48" style="stroke-width: 1.07;stroke: #EBEBEB;stroke-linecap: butt;"/>
<line x1="511.63" y1="517.89" x2="935.32" y2="517.89" style="stroke-width: 1.07;stroke: #7F7F7F; stroke-dasharray: 5.69, 5.69;stroke-linecap: butt;"/>
<rect x="530.89" y="-694.92" width="23.34" height="2425.62" style="stroke-width: 1.07;stroke: none;stroke-linecap: butt;stroke-linejoin: miter;fill: #FF0000;fill-opacity: 0.15;"/>
<rect x="698.18" y="-694.92" width="217.88" height="2425.62" style="stroke-width: 1.07;stroke: none;stroke-linecap: butt;stroke-linejoin: miter;fill: #FF0000;fill-opacity: 0.15;"/>
<polygon points="530.89,458.90 534.78,460.19 538.67,461.47 542.56,462.72 546.45,463.94 550.34,465.12 554.23,466.26 558.12,467.36 562.01,468.41 565.90,469.41 569.79,470.35 573.68,471.23 577.57,472.04 581.47,472.78 585.36,473.45 589.25,474.05 593.14,474.58 597.03,475.04 600.92,475.44 604.81,475.76 608.70,476.02 612.59,476.22 616.48,476.35 620.37,476.42 624.26,476.43 628.15,476.38 632.04,476.28 635.93,476.11 639.83,475.88 643.72,475.60 647.61,475.27 651.50,474.88 655.39,474.45 659.28,473.97 663.17,473.44 667.06,472.88 670.95,472.28 674.84,471.66 678.73,471.01 682.62,470.34 686.51,469.66 690.40,468.97 694.29,468.29 698.18,467.61 702.08,466.95 705.97,466.30 709.86,465.68 713.75,465.08 717.64,464.50 721.53,463.93 725.42,463.39 729.31,462.86 733.20,462.35 737.09,461.86 740.98,461.38 744.87,460.94 748.76,460.51 752.65,460.10 756.54,459.71 760.44,459.33 764.33,458.96 768.22,458.60 772.11,458.24 776.00,457.88 779.89,457.51 783.78,457.15 787.67,456.78 791.56,456.41 795.45,456.03 799.34,455.65 803.23,455.26 807.12,454.88 811.01,454.49 814.90,454.10 818.80,453.71 822.69,453.32 826.58,452.94 830.47,452.57 834.36,452.22 838.25,451.87 842.14,451.53 846.03,451.20 849.92,450.87 853.81,450.54 857.70,450.22 861.59,449.89 865.48,449.56 869.37,449.23 873.26,448.91 877.16,448.58 881.05,448.25 884.94,447.92 888.83,447.59 892.72,447.25 896.61,446.90 900.50,446.54 904.39,446.17 908.28,445.79 912.17,445.40 916.06,445.00 916.06,496.81 912.17,497.02 908.28,497.25 904.39,497.49 900.50,497.74 896.61,498.00 892.72,498.27 888.83,498.55 884.94,498.82 881.05,499.10 877.16,499.38 873.26,499.66 869.37,499.93 865.48,500.21 861.59,500.48 857.70,500.76 853.81,501.05 849.92,501.34 846.03,501.64 842.14,501.95 838.25,502.26 834.36,502.59 830.47,502.92 826.58,503.26 822.69,503.61 818.80,503.96 814.90,504.32 811.01,504.69 807.12,505.06 803.23,505.44 799.34,505.81 795.45,506.19 791.56,506.56 787.67,506.92 783.78,507.27 779.89,507.62 776.00,507.96 772.11,508.31 768.22,508.66 764.33,509.02 760.44,509.38 756.54,509.77 752.65,510.16 748.76,510.57 744.87,510.99 740.98,511.44 737.09,511.90 733.20,512.39 729.31,512.89 725.42,513.42 721.53,513.97 717.64,514.54 713.75,515.14 709.86,515.75 705.97,516.39 702.08,517.04 698.18,517.71 694.29,518.40 690.40,519.09 686.51,519.78 682.62,520.47 678.73,521.16 674.84,521.83 670.95,522.48 667.06,523.10 663.17,523.69 659.28,524.24 655.39,524.75 651.50,525.20 647.61,525.61 643.72,525.96 639.83,526.27 635.93,526.53 632.04,526.73 628.15,526.88 624.26,526.98 620.37,527.01 616.48,526.99 612.59,526.90 608.70,526.74 604.81,526.53 600.92,526.25 597.03,525.91 593.14,525.51 589.25,525.04 585.36,524.51 581.47,523.92 577.57,523.26 573.68,522.53 569.79,521.73 565.90,520.87 562.01,519.96 558.12,519.00 554.23,518.00 550.34,516.96 546.45,515.91 542.56,514.84 538.67,513.76 534.78,512.69 530.89,511.61" style="stroke-width: 0.00;stroke: none;stroke-linecap: butt;fill: #333333;fill-opacity: 0.20;" />
<polyline points="530.89,458.90 534.78,460.19 538.67,461.47 542.56,462.72 546.45,463.94 550.34,465.12 554.23,466.26 558.12,467.36 562.01,468.41 565.90,469.41 569.79,470.35 573.68,471.23 577.57,472.04 581.47,472.78 585.36,473.45 589.25,474.05 593.14,474.58 597.03,475.04 600.92,475.44 604.81,475.76 608.70,476.02 612.59,476.22 616.48,476.35 620.37,476.42 624.26,476.43 628.15,476.38 632.04,476.28 635.93,476.11 639.83,475.88 643.72,475.60 647.61,475.27 651.50,474.88 655.39,474.45 659.28,473.97 663.17,473.44 667.06,472.88 670.95,472.28 674.84,471.66 678.73,471.01 682.62,470.34 686.51,469.66 690.40,468.97 694.29,468.29 698.18,467.61 702.08,466.95 705.97,466.30 709.86,465.68 713.75,465.08 717.64,464.50 721.53,463.93 725.42,463.39 729.31,462.86 733.20,462.35 737.09,461.86 740.98,461.38 744.87,460.94 748.76,460.51 752.65,460.10 756.54,459.71 760.44,459.33 764.33,458.96 768.22,458.60 772.11,458.24 776.00,457.88 779.89,457.51 783.78,457.15 787.67,456.78 791.56,456.41 795.45,456.03 799.34,455.65 803.23,455.26 807.12,454.88 811.01,454.49 814.90,454.10 818.80,453.71 822.69,453.32 826.58,452.94 830.47,452.57 834.36,452.22 838.25,451.87 842.14,451.53 846.03,451.20 849.92,450.87 853.81,450.54 857.70,450.22 861.59,449.89 865.48,449.56 869.37,449.23 873.26,448.91 877.16,448.58 881.05,448.25 884.94,447.92 888.83,447.59 892.72,447.25 896.61,446.90 900.50,446.54 904.39,446.17 908.28,445.79 912.17,445.40 916.06,445.00" style="stroke-width: 1.07;stroke: none;stroke-linecap: butt;"/>
<polyline points="916.06,496.81 912.17,497.02 908.28,497.25 904.39,497.49 900.50,497.74 896.61,498.00 892.72,498.27 888.83,498.55 884.94,498.82 881.05,499.10 877.16,499.38 873.26,499.66 869.37,499.93 865.48,500.21 861.59,500.48 857.70,500.76 853.81,501.05 849.92,501.34 846.03,501.64 842.14,501.95 838.25,502.26 834.36,502.59 830.47,502.92 826.58,503.26 822.69,503.61 818.80,503.96 814.90,504.32 811.01,504.69 807.12,505.06 803.23,505.44 799.34,505.81 795.45,506.19 791.56,506.56 787.67,506.92 783.78,507.27 779.89,507.62 776.00,507.96 772.11,508.31 768.22,508.66 764.33,509.02 760.44,509.38 756.54,509.77 752.65,510.16 748.76,510.57 744.87,510.99 740.98,511.44 737.09,511.90 733.20,512.39 729.31,512.89 725.42,513.42 721.53,513.97 717.64,514.54 713.75,515.14 709.86,515.75 705.97,516.39 702.08,517.04 698.18,517.71 694.29,518.40 690.40,519.09 686.51,519.78 682.62,520.47 678.73,521.16 674.84,521.83 670.95,522.48 667.06,523.10 663.17,523.69 659.28,524.24 655.39,524.75 651.50,525.20 647.61,525.61 643.72,525.96 639.83,526.27 635.93,526.53 632.04,526.73 628.15,526.88 624.26,526.98 620.37,527.01 616.48,526.99 612.59,526.90 608.70,526.74 604.81,526.53 600.92,526.25 597.03,525.91 593.14,525.51 589.25,525.04 585.36,524.51 581.47,523.92 577.57,523.26 573.68,522.53 569.79,521.73 565.90,520.87 562.01,519.96 558.12,519.00 554.23,518.00 550.34,516.96 546.45,515.91 542.56,514.84 538.67,513.76 534.78,512.69 530.89,511.61" style="stroke-width: 1.07;stroke: none;stroke-linecap: butt;"/>
<polyline points="530.89,485.26 534.78,486.44 538.67,487.61 542.56,488.78 546.45,489.92 550.34,491.04 554.23,492.13 558.12,493.18 562.01,494.19 565.90,495.14 569.79,496.04 573.68,496.88 577.57,497.65 581.47,498.35 585.36,498.98 589.25,499.55 593.14,500.04 597.03,500.48 600.92,500.84 604.81,501.15 608.70,501.38 612.59,501.56 616.48,501.67 620.37,501.72 624.26,501.70 628.15,501.63 632.04,501.50 635.93,501.32 639.83,501.08 643.72,500.78 647.61,500.44 651.50,500.04 655.39,499.60 659.28,499.10 663.17,498.57 667.06,497.99 670.95,497.38 674.84,496.74 678.73,496.08 682.62,495.41 686.51,494.72 690.40,494.03 694.29,493.34 698.18,492.66 702.08,491.99 705.97,491.35 709.86,490.72 713.75,490.11 717.64,489.52 721.53,488.95 725.42,488.40 729.31,487.87 733.20,487.37 737.09,486.88 740.98,486.41 744.87,485.97 748.76,485.54 752.65,485.13 756.54,484.74 760.44,484.36 764.33,483.99 768.22,483.63 772.11,483.27 776.00,482.92 779.89,482.57 783.78,482.21 787.67,481.85 791.56,481.48 795.45,481.11 799.34,480.73 803.23,480.35 807.12,479.97 811.01,479.59 814.90,479.21 818.80,478.83 822.69,478.46 826.58,478.10 830.47,477.75 834.36,477.40 838.25,477.07 842.14,476.74 846.03,476.42 849.92,476.10 853.81,475.80 857.70,475.49 861.59,475.19 865.48,474.89 869.37,474.58 873.26,474.28 877.16,473.98 881.05,473.68 884.94,473.37 888.83,473.07 892.72,472.76 896.61,472.45 900.50,472.14 904.39,471.83 908.28,471.52 912.17,471.21 916.06,470.90" style="stroke-width: 1.07;stroke-linecap: butt;"/>
<rect x="511.63" y="384.48" width="423.69" height="266.82" style="stroke-width: 1.07;stroke: #333333;"/>
</g><g clip-path="url(#c16)">
<g><text x="506.70" y="642.32" text-anchor="end" style="font-family: Arial;font-size: 8.80px;fill: #4D4D4D;" textLength="15.16px" lengthAdjust="spacingAndGlyphs">-1.0</text></g>
<g><text x="506.70" y="581.68" text-anchor="end" style="font-family: Arial;font-size: 8.80px;fill: #4D4D4D;" textLength="15.16px" lengthAdjust="spacingAndGlyphs">-0.5</text></g>
<g><text x="506.70" y="521.04" text-anchor="end" style="font-family: Arial;font-size: 8.80px;fill: #4D4D4D;" textLength="12.23px" lengthAdjust="spacingAndGlyphs">0.0</text></g>
<g><text x="506.70" y="460.40" text-anchor="end" style="font-family: Arial;font-size: 8.80px;fill: #4D4D4D;" textLength="12.23px" lengthAdjust="spacingAndGlyphs">0.5</text></g>
<g><text x="506.70" y="399.76" text-anchor="end" style="font-family: Arial;font-size: 8.80px;fill: #4D4D4D;" textLength="12.23px" lengthAdjust="spacingAndGlyphs">1.0</text></g>
<polyline points="508.89,639.17 511.63,639.17" style="stroke-width: 1.07;stroke: #333333;stroke-linecap: butt;"/>
<polyline points="508.89,578.53 511.63,578.53" style="stroke-width: 1.07;stroke: #333333;stroke-linecap: butt;"/>
<polyline points="508.89,517.89 511.63,517.89" style="stroke-width: 1.07;stroke: #333333;stroke-linecap: butt;"/>
<polyline points="508.89,457.25 511.63,457.25" style="stroke-width: 1.07;stroke: #333333;stroke-linecap: butt;"/>
<polyline points="508.89,396.61 511.63,396.61" style="stroke-width: 1.07;stroke: #333333;stroke-linecap: butt;"/>
<polyline points="595.08,654.04 595.08,651.30" style="stroke-width: 1.07;stroke: #333333;stroke-linecap: butt;"/>
<polyline points="702.08,654.04 702.08,651.30" style="stroke-width: 1.07;stroke: #333333;stroke-linecap: butt;"/>
<polyline points="809.07,654.04 809.07,651.30" style="stroke-width: 1.07;stroke: #333333;stroke-linecap: butt;"/>
<polyline points="916.06,654.04 916.06,651.30" style="stroke-width: 1.07;stroke: #333333;stroke-linecap: butt;"/>
<g><text x="595.08" y="662.54" text-anchor="middle" style="font-family: Arial;font-size: 8.80px;fill: #4D4D4D;" textLength="12.23px" lengthAdjust="spacingAndGlyphs">2.5</text></g>
<g><text x="702.08" y="662.54" text-anchor="middle" style="font-family: Arial;font-size: 8.80px;fill: #4D4D4D;" textLength="12.23px" lengthAdjust="spacingAndGlyphs">5.0</text></g>
<g><text x="809.07" y="662.54" text-anchor="middle" style="font-family: Arial;font-size: 8.80px;fill: #4D4D4D;" textLength="12.23px" lengthAdjust="spacingAndGlyphs">7.5</text></g>
<g><text x="916.06" y="662.54" text-anchor="middle" style="font-family: Arial;font-size: 8.80px;fill: #4D4D4D;" textLength="17.13px" lengthAdjust="spacingAndGlyphs">10.0</text></g>
<g><text x="723.47" y="675.30" text-anchor="middle" style="font-family: Arial;font-size: 11.00px;" textLength="94.79px" lengthAdjust="spacingAndGlyphs">prop. word duration</text></g>
<g><text transform="translate(483.77,517.89) rotate(-90.00)" text-anchor="middle" style="font-family: Arial;font-size: 11.00px;" textLength="108.22px" lengthAdjust="spacingAndGlyphs">est. smooth difference</text></g>
<g><text x="511.63" y="376.14" style="font-family: Arial;font-size: 13.20px;" textLength="262.47px" lengthAdjust="spacingAndGlyphs">Difference smooth for modal vs. rearticulated</text></g>
</g>
</svg>